HIERARCHY
ROOT Hips
{
	OFFSET 0.000000 94.554123 0.000000
	CHANNELS 6 Xposition Yposition Zposition Xrotation Yrotation Zrotation 
	JOINT Spine
	{
		OFFSET 0.000000 9.988899 -0.514100
		CHANNELS 3 Xrotation Yrotation Zrotation
		JOINT Spine1
		{
			OFFSET 0.000000 8.324053 -0.428393
			CHANNELS 3 Xrotation Yrotation Zrotation
			JOINT Spine1_split
			{
				OFFSET 0.000000 8.324053 -0.428393
				CHANNELS 3 Xrotation Yrotation Zrotation
				JOINT Spine2
				{
					OFFSET 0.000000 8.324053 -0.428393
					CHANNELS 3 Xrotation Yrotation Zrotation
					JOINT Neck
					{
						OFFSET 0.000000 14.983261 -0.771106
						CHANNELS 3 Xrotation Yrotation Zrotation
						JOINT Head
						{
							OFFSET 0.000000 10.043304 2.801000
							CHANNELS 3 Xrotation Yrotation Zrotation
							JOINT HeadTop_End
							{
								OFFSET 0.000000 19.370499 5.402200
								CHANNELS 3 Xrotation Yrotation Zrotation
								End Site
								{
									OFFSET 0.000000 0.000000 0.000000
								}
							}
						}
					}
					JOINT LeftShoulder
					{
						OFFSET 2.945400 6.709992 -0.372963
						CHANNELS 3 Xrotation Yrotation Zrotation
						JOINT LeftShoulder_split
						{
							OFFSET 2.945400 6.709992 -0.372963
							CHANNELS 3 Xrotation Yrotation Zrotation
							JOINT LeftArm
							{
								OFFSET 11.984735 -3.101700 0.050316
								CHANNELS 3 Xrotation Yrotation Zrotation
								JOINT LeftForeArm
								{
									OFFSET 23.321905 0.000000 0.000000
									CHANNELS 3 Xrotation Yrotation Zrotation
									JOINT LeftHand
									{
										OFFSET 25.153908 0.000000 0.000001
										CHANNELS 3 Xrotation Yrotation Zrotation
										JOINT LeftHandThumb1
										{
											OFFSET 2.688713 -1.230148 2.514884
											CHANNELS 3 Xrotation Yrotation Zrotation
											JOINT LeftHandThumb2
											{
												OFFSET 2.405396 -1.388763 1.388756
												CHANNELS 3 Xrotation Yrotation Zrotation
												JOINT LeftHandThumb3
												{
													OFFSET 2.395073 -1.382797 1.382794
													CHANNELS 3 Xrotation Yrotation Zrotation
													JOINT LeftHandThumb4
													{
														OFFSET 1.881668 -1.086380 1.086381
														CHANNELS 3 Xrotation Yrotation Zrotation
														End Site
														{
															OFFSET 0.000000 0.000000 0.000000
														}
													}
												}
											}
										}
										JOINT LeftHandIndex1
										{
											OFFSET 8.511635 -0.363083 2.405464
											CHANNELS 3 Xrotation Yrotation Zrotation
											JOINT LeftHandIndex2
											{
												OFFSET 3.013802 0.000000 0.000000
												CHANNELS 3 Xrotation Yrotation Zrotation
												JOINT LeftHandIndex3
												{
													OFFSET 2.795700 0.000000 0.000000
													CHANNELS 3 Xrotation Yrotation Zrotation
													JOINT LeftHandIndex4
													{
														OFFSET 2.454002 0.000000 0.000000
														CHANNELS 3 Xrotation Yrotation Zrotation
														End Site
														{
															OFFSET 0.000000 0.000000 0.000000
														}
													}
												}
											}
										}
										JOINT LeftHandMiddle1
										{
											OFFSET 8.357803 0.000000 0.000000
											CHANNELS 3 Xrotation Yrotation Zrotation
											JOINT LeftHandMiddle2
											{
												OFFSET 3.307404 0.000000 0.000000
												CHANNELS 3 Xrotation Yrotation Zrotation
												JOINT LeftHandMiddle3
												{
													OFFSET 3.061005 0.000000 0.000000
													CHANNELS 3 Xrotation Yrotation Zrotation
													JOINT LeftHandMiddle4
													{
														OFFSET 2.645699 0.000000 0.000000
														CHANNELS 3 Xrotation Yrotation Zrotation
														End Site
														{
															OFFSET 0.000000 0.000000 0.000000
														}
													}
												}
											}
										}
										JOINT LeftHandRing1
										{
											OFFSET 8.235176 -0.073303 -2.048958
											CHANNELS 3 Xrotation Yrotation Zrotation
											JOINT LeftHandRing2
											{
												OFFSET 2.814804 0.000000 0.000000
												CHANNELS 3 Xrotation Yrotation Zrotation
												JOINT LeftHandRing3
												{
													OFFSET 2.662102 0.000000 0.000000
													CHANNELS 3 Xrotation Yrotation Zrotation
													JOINT LeftHandRing4
													{
														OFFSET 2.324699 0.000000 0.000000
														CHANNELS 3 Xrotation Yrotation Zrotation
														End Site
														{
															OFFSET 0.000000 0.000000 0.000000
														}
													}
												}
											}
										}
										JOINT LeftHandPinky1
										{
											OFFSET 7.776482 -0.344757 -4.135562
											CHANNELS 3 Xrotation Yrotation Zrotation
											JOINT LeftHandPinky2
											{
												OFFSET 2.337105 0.000000 0.000000
												CHANNELS 3 Xrotation Yrotation Zrotation
												JOINT LeftHandPinky3
												{
													OFFSET 1.932404 0.000000 0.000000
													CHANNELS 3 Xrotation Yrotation Zrotation
													JOINT LeftHandPinky4
													{
														OFFSET 1.642700 0.000000 0.000000
														CHANNELS 3 Xrotation Yrotation Zrotation
														End Site
														{
															OFFSET 0.000000 0.000000 0.000000
														}
													}
												}
											}
										}
									}
								}
							}
						}
					}
					JOINT RightShoulder
					{
						OFFSET -2.945400 6.709999 -0.398147
						CHANNELS 3 Xrotation Yrotation Zrotation
						JOINT RightShoulder_split
						{
							OFFSET -2.945400 6.709999 -0.398147
							CHANNELS 3 Xrotation Yrotation Zrotation
							JOINT RightArm
							{
								OFFSET -11.984732 -3.101715 -0.050333
								CHANNELS 3 Xrotation Yrotation Zrotation
								JOINT RightForeArm
								{
									OFFSET -23.311098 0.000000 0.000001
									CHANNELS 3 Xrotation Yrotation Zrotation
									JOINT RightHand
									{
										OFFSET -25.158005 0.000000 0.000001
										CHANNELS 3 Xrotation Yrotation Zrotation
										JOINT RightHandThumb1
										{
											OFFSET -2.727959 -1.171844 2.549707
											CHANNELS 3 Xrotation Yrotation Zrotation
											JOINT RightHandThumb2
											{
												OFFSET -2.425117 -1.400146 1.400141
												CHANNELS 3 Xrotation Yrotation Zrotation
												JOINT RightHandThumb3
												{
													OFFSET -2.302261 -1.329208 1.329210
													CHANNELS 3 Xrotation Yrotation Zrotation
													JOINT RightHandThumb4
													{
														OFFSET -1.839920 -1.062286 1.062280
														CHANNELS 3 Xrotation Yrotation Zrotation
														End Site
														{
															OFFSET 0.000000 0.000000 0.000000
														}
													}
												}
											}
										}
										JOINT RightHandIndex1
										{
											OFFSET -8.415245 -0.274536 2.401452
											CHANNELS 3 Xrotation Yrotation Zrotation
											JOINT RightHandIndex2
											{
												OFFSET -3.031937 0.000000 0.000000
												CHANNELS 3 Xrotation Yrotation Zrotation
												JOINT RightHandIndex3
												{
													OFFSET -2.839401 0.000000 0.000000
													CHANNELS 3 Xrotation Yrotation Zrotation
													JOINT RightHandIndex4
													{
														OFFSET -2.415825 0.000000 0.000000
														CHANNELS 3 Xrotation Yrotation Zrotation
														End Site
														{
															OFFSET 0.000000 0.000000 0.000000
														}
													}
												}
											}
										}
										JOINT RightHandMiddle1
										{
											OFFSET -8.445801 0.000000 0.000000
											CHANNELS 3 Xrotation Yrotation Zrotation
											JOINT RightHandMiddle2
											{
												OFFSET -3.261909 0.000000 0.000000
												CHANNELS 3 Xrotation Yrotation Zrotation
												JOINT RightHandMiddle3
												{
													OFFSET -3.026810 0.000000 0.000000
													CHANNELS 3 Xrotation Yrotation Zrotation
													JOINT RightHandMiddle4
													{
														OFFSET -2.703903 0.000000 0.000000
														CHANNELS 3 Xrotation Yrotation Zrotation
														End Site
														{
															OFFSET 0.000000 0.000000 0.000000
														}
													}
												}
											}
										}
										JOINT RightHandRing1
										{
											OFFSET -8.515076 0.086319 -2.037783
											CHANNELS 3 Xrotation Yrotation Zrotation
											JOINT RightHandRing2
											{
												OFFSET -2.681702 0.000000 0.000000
												CHANNELS 3 Xrotation Yrotation Zrotation
												JOINT RightHandRing3
												{
													OFFSET -2.605904 0.000000 0.000000
													CHANNELS 3 Xrotation Yrotation Zrotation
													JOINT RightHandRing4
													{
														OFFSET -2.190498 0.000000 0.000000
														CHANNELS 3 Xrotation Yrotation Zrotation
														End Site
														{
															OFFSET 0.000000 0.000000 0.000000
														}
													}
												}
											}
										}
										JOINT RightHandPinky1
										{
											OFFSET -7.677589 -0.312988 -4.019109
											CHANNELS 3 Xrotation Yrotation Zrotation
											JOINT RightHandPinky2
											{
												OFFSET -2.464798 0.000000 0.000000
												CHANNELS 3 Xrotation Yrotation Zrotation
												JOINT RightHandPinky3
												{
													OFFSET -1.935104 0.000000 0.000000
													CHANNELS 3 Xrotation Yrotation Zrotation
													JOINT RightHandPinky4
													{
														OFFSET -1.670403 0.000000 0.000000
														CHANNELS 3 Xrotation Yrotation Zrotation
														End Site
														{
															OFFSET 0.000000 0.000000 0.000000
														}
													}
												}
											}
										}
									}
								}
							}
						}
					}
				}
			}
		}
	}
	JOINT LeftUpLeg
	{
		OFFSET 8.773100 -5.559700 -1.002700
		CHANNELS 3 Xrotation Yrotation Zrotation
		JOINT LeftLeg
		{
			OFFSET 0.054829 -40.680889 -3.279527
			CHANNELS 3 Xrotation Yrotation Zrotation
			JOINT LeftFoot
			{
				OFFSET -0.054837 -37.885715 -1.253853
				CHANNELS 3 Xrotation Yrotation Zrotation
				JOINT LeftToeBase
				{
					OFFSET -0.956007 -9.084614 13.445478
					CHANNELS 3 Xrotation Yrotation Zrotation
					JOINT LeftToe_End
					{
						OFFSET -0.647369 0.327814 6.792853
						CHANNELS 3 Xrotation Yrotation Zrotation
						End Site
						{
							OFFSET 0.000000 0.000000 0.000000
						}
					}
				}
			}
		}
	}
	JOINT RightUpLeg
	{
		OFFSET -8.773100 -5.559700 -1.301000
		CHANNELS 3 Xrotation Yrotation Zrotation
		JOINT RightLeg
		{
			OFFSET -0.054804 -40.680939 -2.697344
			CHANNELS 3 Xrotation Yrotation Zrotation
			JOINT RightFoot
			{
				OFFSET 0.054807 -37.885651 -1.441477
				CHANNELS 3 Xrotation Yrotation Zrotation
				JOINT RightToeBase
				{
					OFFSET 0.955908 -9.085550 13.639909
					CHANNELS 3 Xrotation Yrotation Zrotation
					JOINT RightToe_End
					{
						OFFSET 0.647336 0.327335 6.933457
						CHANNELS 3 Xrotation Yrotation Zrotation
						End Site
						{
							OFFSET 0.000000 0.000000 0.000000
						}
					}
				}
			}
		}
	}
}
MOTION
Frames: 4
Frame Time: 0.016667
0.387445 77.687500 -0.970142 -25.962582 -106.728406 -28.301224 37.545403 -7.314727 12.881693 0.414800 -2.362317 -7.709563 0.000000 0.000000 0.000000 0.107112 -3.355758 -7.348582 3.932355 13.061875 3.407135 -15.876753 71.958877 -1.914024 -0.000000 0.000000 -0.000000 -4.890017 -12.069212 -11.461801 0.000000 0.000000 0.000000 67.211404 -104.557007 63.308252 -0.000024 -57.121302 -0.000031 -24.949033 -1.946212 11.620524 27.368995 -31.211150 -2.623198 12.878158 61.108453 3.450924 -4.565740 23.207157 18.818228 -0.000003 0.000002 -0.000000 3.409500 7.638118 -64.576317 3.045597 5.136672 -61.306712 0.816296 2.984811 -30.585020 -0.000000 -0.000000 0.000000 3.409516 7.638122 -64.576310 3.045587 5.136665 -61.306719 0.816308 2.984807 -30.585017 0.000001 -0.000000 -0.000002 3.409528 7.638107 -64.576304 3.045590 5.136676 -61.306726 0.816303 2.984802 -30.585017 -0.000001 -0.000001 -0.000002 3.409538 7.638113 -64.576304 3.045606 5.136671 -61.306719 0.816310 2.984817 -30.585020 0.000001 0.000002 -0.000000 1.568984 8.117218 -0.218849 0.000000 0.000000 0.000000 -35.060327 0.045071 12.100373 0.000003 118.052593 0.000006 -58.824205 13.269475 -13.517800 14.999019 22.306133 9.028885 11.182893 -54.589963 -4.064280 -3.441222 -25.198824 -18.719341 0.000001 0.000008 0.000000 2.897208 -6.567307 67.103344 2.658707 -4.207435 64.564330 0.718984 -2.487913 32.233329 0.000001 0.000001 -0.000000 2.897206 -6.567299 67.103344 2.658709 -4.207448 64.564330 0.718982 -2.487910 32.233340 -0.000001 -0.000001 0.000000 2.897220 -6.567319 67.103344 2.658733 -4.207439 64.564351 0.718971 -2.487904 32.233329 0.000001 -0.000001 -0.000001 2.897213 -6.567299 67.103357 2.658751 -4.207427 64.564317 0.718986 -2.487913 32.233322 0.000000 0.000001 0.000000 -47.090415 -7.588074 33.702862 66.088077 -8.656270 9.972007 2.147300 -11.208438 -29.810163 -27.906374 0.232962 -1.111861 -0.000000 0.000001 0.000000 -57.976463 -1.034881 4.104496 72.944979 8.186896 -1.278676 -21.986895 0.599776 -2.030232 -0.000052 0.000009 0.000010 -0.000000 -0.000000 -0.000000 
0.494939 77.569321 -1.070235 -25.836466 -106.650761 -28.188768 37.681170 -7.365573 12.954475 0.413907 -2.371657 -7.768086 0.000000 0.000000 0.000000 0.102419 -3.375479 -7.404245 3.901213 13.056765 3.417280 -15.875784 71.927424 -1.898011 0.000001 -0.000002 0.000000 -4.893090 -12.049584 -11.469462 0.000000 0.000000 0.000000 67.769806 -104.671426 63.958848 -0.000010 -57.678448 -0.000017 -23.976616 -1.316777 12.105162 27.368995 -31.211147 -2.623200 12.878169 61.108446 3.450917 -4.565743 23.207161 18.818225 0.000002 -0.000003 0.000005 3.409500 7.638118 -64.576310 3.045596 5.136670 -61.306706 0.816295 2.984813 -30.585020 -0.000001 -0.000002 0.000002 3.409516 7.638122 -64.576310 3.045589 5.136666 -61.306719 0.816308 2.984809 -30.585020 -0.000000 -0.000002 0.000002 3.409527 7.638105 -64.576304 3.045590 5.136675 -61.306726 0.816303 2.984808 -30.585027 -0.000000 -0.000001 0.000003 3.409538 7.638112 -64.576304 3.045603 5.136672 -61.306712 0.816310 2.984818 -30.585024 -0.000001 0.000000 -0.000003 1.601005 8.181764 -0.504861 0.000000 0.000000 0.000000 -35.359063 -0.424841 12.645851 0.000004 118.163338 0.000010 -58.703133 13.933540 -12.794407 14.999015 22.306133 9.028885 11.182888 -54.589969 -4.064286 -3.441228 -25.198829 -18.719344 0.000003 0.000006 0.000006 2.897206 -6.567307 67.103344 2.658704 -4.207435 64.564330 0.718983 -2.487916 32.233329 0.000003 -0.000001 -0.000001 2.897204 -6.567299 67.103337 2.658709 -4.207451 64.564330 0.718986 -2.487912 32.233340 -0.000002 0.000000 -0.000001 2.897219 -6.567320 67.103344 2.658731 -4.207437 64.564344 0.718977 -2.487903 32.233326 -0.000002 -0.000001 0.000001 2.897209 -6.567301 67.103357 2.658751 -4.207423 64.564323 0.718988 -2.487913 32.233326 0.000002 0.000001 -0.000000 -47.148642 -7.751007 33.759337 66.219012 -8.658966 9.971353 2.167977 -11.267950 -29.808752 -27.857355 0.249957 -1.192474 -0.000000 -0.000000 0.000000 -58.114781 -1.078031 4.186696 73.197355 8.060417 -1.257814 -22.028198 0.612403 -2.082204 -0.000051 0.000010 0.000010 -0.000000 -0.000001 -0.000000 
0.602191 77.445129 -1.174099 -25.659795 -106.574297 -28.034447 37.816541 -7.419927 13.020854 0.416189 -2.381380 -7.827408 0.000000 0.000000 0.000000 0.100963 -3.395688 -7.460729 3.876259 13.055115 3.423428 -15.911919 71.904475 -1.826776 0.000000 -0.000001 -0.000002 -4.899592 -12.023161 -11.489364 0.000000 0.000000 0.000000 68.370685 -104.762685 64.621806 0.000002 -58.292605 0.000007 -22.923713 -0.627222 12.686594 27.368993 -31.211150 -2.623200 12.878168 61.108446 3.450919 -4.565745 23.207163 18.818223 0.000003 -0.000003 0.000007 3.409500 7.638119 -64.576310 3.045601 5.136671 -61.306712 0.816296 2.984813 -30.585017 -0.000001 -0.000000 -0.000001 3.409515 7.638122 -64.576310 3.045589 5.136664 -61.306719 0.816309 2.984803 -30.585020 -0.000001 0.000001 -0.000003 3.409528 7.638105 -64.576310 3.045589 5.136675 -61.306726 0.816302 2.984808 -30.585020 -0.000000 -0.000001 -0.000006 3.409537 7.638112 -64.576304 3.045605 5.136670 -61.306719 0.816309 2.984820 -30.585020 0.000000 -0.000001 0.000005 1.634116 8.249887 -0.788928 0.000000 0.000000 0.000000 -35.653772 -0.923717 13.251276 -0.000002 118.260436 0.000025 -58.578434 14.662080 -11.923409 14.999017 22.306127 9.028887 11.182894 -54.589969 -4.064287 -3.441222 -25.198829 -18.719346 0.000003 0.000004 0.000003 2.897206 -6.567306 67.103351 2.658704 -4.207435 64.564330 0.718985 -2.487913 32.233329 -0.000004 0.000001 -0.000000 2.897207 -6.567299 67.103344 2.658710 -4.207449 64.564330 0.718984 -2.487911 32.233340 -0.000000 -0.000001 0.000000 2.897222 -6.567320 67.103337 2.658734 -4.207441 64.564344 0.718977 -2.487906 32.233326 0.000002 -0.000001 -0.000001 2.897214 -6.567302 67.103351 2.658751 -4.207424 64.564330 0.718985 -2.487914 32.233326 0.000000 -0.000001 0.000000 -47.196354 -7.923142 33.829620 66.363812 -8.661809 9.970556 2.188258 -11.329640 -29.807147 -27.809001 0.268134 -1.278626 -0.000000 -0.000001 0.000000 -58.246084 -1.130714 4.274742 73.461260 7.937573 -1.232258 -22.074688 0.627384 -2.143435 -0.000049 0.000009 0.000010 -0.000000 -0.000000 -0.000000 
0.708775 77.313904 -1.281247 -25.426330 -106.499253 -27.831906 37.951950 -7.477950 13.081351 0.420846 -2.391431 -7.887645 0.000000 0.000000 0.000000 0.101922 -3.416302 -7.518156 3.859447 13.056895 3.426061 -15.981133 71.891545 -1.704288 -0.000001 -0.000002 0.000000 -4.909950 -11.989400 -11.523070 0.000000 0.000000 0.000000 69.002860 -104.831048 65.281118 -0.000002 -58.952462 -0.000012 -21.789465 0.125305 13.354664 27.368998 -31.211147 -2.623198 12.878172 61.108453 3.450921 -4.565740 23.207169 18.818225 -0.000001 0.000001 0.000002 3.409501 7.638118 -64.576310 3.045597 5.136669 -61.306706 0.816297 2.984812 -30.585020 -0.000002 -0.000001 -0.000000 3.409516 7.638122 -64.576310 3.045591 5.136665 -61.306719 0.816308 2.984804 -30.585020 -0.000000 0.000000 -0.000007 3.409529 7.638105 -64.576304 3.045591 5.136676 -61.306726 0.816303 2.984804 -30.585020 -0.000000 -0.000000 -0.000004 3.409537 7.638112 -64.576304 3.045603 5.136671 -61.306719 0.816311 2.984820 -30.585020 -0.000000 -0.000001 0.000000 1.668759 8.323939 -1.073110 0.000000 0.000000 0.000000 -35.935203 -1.453877 13.919203 0.000009 118.337125 0.000016 -58.460006 15.463241 -10.900920 14.999015 22.306129 9.028887 11.182895 -54.589963 -4.064285 -3.441227 -25.198830 -18.719346 0.000000 0.000007 0.000007 2.897204 -6.567308 67.103351 2.658706 -4.207433 64.564330 0.718986 -2.487912 32.233322 -0.000000 -0.000000 -0.000001 2.897205 -6.567300 67.103344 2.658710 -4.207451 64.564330 0.718979 -2.487913 32.233333 0.000001 0.000001 0.000001 2.897222 -6.567320 67.103344 2.658734 -4.207443 64.564344 0.718980 -2.487907 32.233333 0.000000 0.000001 0.000001 2.897214 -6.567302 67.103351 2.658750 -4.207426 64.564317 0.718985 -2.487916 32.233329 -0.000004 0.000000 0.000001 -47.233572 -8.105120 33.914109 66.525291 -8.664772 9.969646 2.212618 -11.392379 -29.805405 -27.767403 0.287824 -1.371344 -0.000000 0.000002 0.000000 -58.370353 -1.193064 4.368112 73.739719 7.819221 -1.202092 -22.128001 0.644878 -2.214273 -0.000051 0.000009 0.000010 0.000000 -0.000000 -0.000000 
